<svg xmlns="http://www.w3.org/2000/svg" viewBox="0 0 867 866" width="867" height="866">
	<defs>
		<clipPath clipPathUnits="userSpaceOnUse" id="cp1">
			<path d="M-408 -165L1276 -165L1276 1026L-408 1026Z" />
		</clipPath>
	</defs>
	<style>
		tspan { white-space:pre }
		.shp0 { fill: #ff6600 } 
		.shp1 { fill: #ffffff } 
	</style>
	<g id="Page 1" clip-path="url(#cp1)">
		<path id="Path 1" class="shp0" d="M866.25 433.28C866.25 672.24 672.52 865.97 433.58 865.97C194.64 865.97 0.92 672.24 0.92 433.28C0.92 194.31 194.64 0.61 433.58 0.61C672.52 0.61 866.25 194.31 866.25 433.28Z" />
		<path id="Path 2" fill-rule="evenodd" class="shp1" d="M318.25 352C318.25 341.08 319.67 331.36 322.46 322.85C325.23 314.33 329.74 307.18 335.91 301.41C342.1 295.61 350.01 291.22 359.7 288.24C369.38 285.25 381.18 283.76 395.08 283.76C408.87 283.76 420.64 285.25 430.38 288.24C440.09 291.22 448.06 295.61 454.25 301.41C460.43 307.18 464.93 314.33 467.68 322.85C470.5 331.36 471.88 341.08 471.88 352C471.88 363.04 470.5 372.82 467.68 381.33C464.93 389.86 460.43 397 454.25 402.79C448.06 408.56 440.09 412.96 430.38 415.94C420.64 418.93 408.87 420.44 395.08 420.44C381.18 420.44 369.38 418.93 359.7 415.94C350.01 412.96 342.1 408.56 335.91 402.79C329.74 397 325.23 389.86 322.46 381.33C319.67 372.82 318.25 363.04 318.25 352ZM430.96 352.97C430.96 347.38 430.38 342.27 429.29 337.67C428.2 333.05 426.29 329.14 423.56 325.88C420.8 322.62 417.14 320.09 412.53 318.27C407.9 316.44 402.09 315.54 395.08 315.54C388.05 315.54 382.24 316.44 377.64 318.27C372.99 320.09 369.34 322.62 366.61 325.88C363.89 329.14 362 333.05 360.97 337.67C359.91 342.27 359.39 347.38 359.39 352.97C359.39 358.57 359.91 363.67 360.97 368.28C362 372.89 363.89 376.85 366.61 380.16C369.34 383.48 372.99 386.09 377.64 387.95C382.24 389.86 388.05 390.8 395.08 390.8C402.09 390.8 407.9 389.86 412.53 387.95C417.14 386.09 420.8 383.48 423.56 380.16C426.29 376.85 428.2 372.89 429.29 368.28C430.38 363.67 430.96 358.57 430.96 352.97ZM485.28 352C485.28 341.08 486.65 331.36 489.46 322.85C492.22 314.33 496.76 307.18 502.9 301.41C509.07 295.61 517.01 291.22 526.7 288.24C536.38 285.25 548.17 283.76 562.08 283.76C575.85 283.76 587.61 285.25 597.39 288.24C607.1 291.22 615.07 295.61 621.25 301.41C627.43 307.18 631.94 314.33 634.71 322.85C637.5 331.36 638.89 341.08 638.89 352C638.89 363.04 637.5 372.82 634.71 381.33C631.94 389.86 627.43 397 621.25 402.79C615.07 408.56 607.1 412.96 597.39 415.94C587.61 418.93 575.85 420.44 562.08 420.44C548.17 420.44 536.38 418.93 526.7 415.94C517.01 412.96 509.07 408.56 502.9 402.79C496.76 397 492.22 389.86 489.46 381.33C486.65 372.82 485.28 363.04 485.28 352ZM597.94 352.97C597.94 347.38 597.39 342.27 596.3 337.67C595.19 333.05 593.28 329.14 590.56 325.88C587.83 322.62 584.13 320.09 579.52 318.27C574.89 316.44 569.1 315.54 562.08 315.54C555.07 315.54 549.23 316.44 544.62 318.27C539.99 320.09 536.37 322.62 533.64 325.88C530.89 329.14 528.98 333.05 527.96 337.67C526.92 342.27 526.41 347.38 526.41 352.97C526.41 358.57 526.92 363.67 527.96 368.28C528.98 372.89 530.89 376.85 533.64 380.16C536.37 383.48 539.99 386.09 544.62 387.95C549.23 389.86 555.07 390.8 562.08 390.8C569.1 390.8 574.89 389.86 579.52 387.95C584.13 386.09 587.83 383.48 590.56 380.16C593.28 376.85 595.19 372.89 596.3 368.28C597.39 363.67 597.94 358.57 597.94 352.97ZM700.54 385.96C701.77 387.06 702.4 388.37 702.4 389.93L702.4 414.23C702.4 415.92 701.77 417.31 700.54 418.51C699.31 419.67 697.79 420.23 695.97 420.23L659.51 420.23C657.44 420.23 655.72 419.58 654.28 418.31C652.85 417.01 652.16 415.46 652.16 413.65L652.16 247.58C652.16 246.04 652.75 244.68 653.98 243.5C655.23 242.35 656.74 241.78 658.53 241.78L685.94 241.78C687.77 241.78 689.27 242.35 690.53 243.5C691.73 244.68 692.35 246.04 692.35 247.58L692.35 372.25C692.35 382.1 692.38 380.46 692.38 384.11L696.17 384.11C697.84 384.23 699.31 384.86 700.54 385.96ZM399.49 588C400.77 589.16 401.43 590.53 401.43 592.16L401.43 617.59C401.43 619.36 400.77 620.82 399.49 622.08C398.2 623.3 396.6 623.87 394.7 623.87L356.53 623.87C354.37 623.87 352.57 623.2 351.06 621.86C349.56 620.5 348.85 618.88 348.85 616.98L348.85 443.16C348.85 441.55 349.45 440.12 350.75 438.9C352.05 437.7 353.63 437.09 355.51 437.09L384.2 437.09C386.1 437.09 387.69 437.7 389 438.9C390.26 440.12 390.91 441.55 390.91 443.16L390.91 573.65C390.91 583.96 390.94 582.25 390.94 586.07L394.9 586.07C396.65 586.2 398.2 586.85 399.49 588ZM310.67 395.32C314.47 400.17 307.12 404.95 306.85 405.08C302.02 408.38 299.3 409.85 295.13 411.99C290.96 414.12 286.52 415.82 281.89 417.12C277.19 418.41 272.12 419.34 266.62 419.91C261.17 420.43 254.75 420.71 247.32 420.71C230.89 420.71 217.48 418.79 207.16 414.97C196.8 411.13 163.35 394.35 163.35 350.67C163.35 308.79 196.8 293.16 207.16 289.32C217.48 285.5 230.89 283.57 247.32 283.57C254.75 283.57 261.17 283.85 266.62 284.36C272.12 284.94 277.19 285.88 281.89 287.16C286.52 288.45 290.96 290.17 295.13 292.29C299.3 294.44 302.02 295.9 306.85 299.2C307.12 299.34 314.47 304.12 310.67 308.95C310 309.84 310 309.89 308.19 312.09L297.69 325.7C296.6 327.2 295.27 328.03 293.67 328.18C292.1 328.3 290.49 327.77 288.86 326.54C285.95 324.6 273.87 314.61 247.32 314.61C228.21 314.61 202.43 326.08 202.43 352.14C202.43 378.63 226.71 389.68 247.32 389.68C275.58 389.68 285.95 379.68 288.86 377.74C290.49 376.51 292.1 375.99 293.67 376.11C295.27 376.25 296.6 377.07 297.69 378.58L308.19 392.19C310 394.4 310 394.44 310.67 395.32Z" />
		<path id="Path 3" fill-rule="evenodd" class="shp1" d="M172.58 444.2C172.58 442.48 173.21 440.95 174.52 439.74C175.79 438.54 177.4 437.93 179.24 437.93L208.42 437.93C210.3 437.93 211.94 438.5 213.22 439.67C214.48 440.81 215.19 442.2 215.34 443.83L215.34 444.27C215.37 444.44 215.38 444.64 215.38 444.82L215.38 488.62C220.68 486.59 226.6 485.04 233.29 483.97C240 482.89 247.58 482.33 256.09 482.33C270.42 482.33 282.73 483.91 292.94 487.02C303.16 490.11 311.44 494.72 317.79 500.77C324.16 506.91 328.85 514.37 331.8 523.24C334.79 532.09 336.26 542.27 336.26 553.79C336.26 565.26 334.86 575.47 332.01 584.32C329.18 593.2 324.59 600.56 318.2 606.53C311.85 612.49 303.65 617 293.55 620.11C283.48 623.24 271.29 624.8 256.95 624.8C248.42 624.8 240.65 624.01 233.69 622.46C226.84 620.92 220.75 619.09 215.38 617L215.13 621.15C215.13 622.76 214.48 623.72 213.22 623.96C211.94 624.26 179.39 624.4 179.39 624.4C177.54 624.4 175.87 623.82 174.55 622.66C173.18 621.5 172.51 620.05 172.51 618.3L172.58 444.2ZM293.47 554.81C293.47 549 292.87 543.65 291.73 538.84C290.59 534.06 288.62 529.93 285.74 526.49C282.88 523.02 279.08 520.36 274.3 518.45C269.49 516.56 263.45 515.61 256.09 515.61C248.79 515.61 242.76 516.56 237.95 518.45C233.16 520.36 229.34 523.02 226.49 526.49C223.66 529.93 221.68 534.06 220.53 538.84C219.34 543.65 218.77 549 218.77 554.81C218.77 560.61 219.34 565.86 220.53 570.53C221.68 575.19 223.66 579.18 226.49 582.49C229.34 585.77 233.16 588.35 237.95 590.1C242.76 591.87 248.79 592.73 256.09 592.73C263.45 592.73 269.49 591.87 274.3 590.1C279.08 588.35 282.88 585.77 285.74 582.49C288.62 579.18 290.59 575.19 291.73 570.53C292.87 565.86 293.47 560.61 293.47 554.81ZM544.18 484.18C545.5 485.36 546.15 486.8 546.15 488.43L546.15 555.62C546.15 567.64 545.2 578 543.27 586.63C541.37 595.31 537.99 602.35 533.04 607.86C528.1 613.32 521.29 617.35 512.64 619.9C503.99 622.5 492.97 623.79 479.58 623.79C466.16 623.79 455.12 622.5 446.44 619.9C437.67 617.35 430.8 613.32 425.84 607.86C420.8 602.35 417.33 595.34 415.35 586.75C413.39 578.15 412.43 567.84 412.43 555.8L412.43 488.43C412.43 486.8 413.06 485.36 414.33 484.18C415.63 482.95 417.23 482.33 419.13 482.33L444.69 482.33C446.55 482.33 448.16 482.95 449.53 484.18C450.92 485.36 451.59 486.8 451.59 488.43L451.59 556.62C451.59 561.47 451.55 565.99 451.88 570.11C452.21 574.23 453.27 577.73 455.12 580.64C456.96 583.57 459.79 585.84 463.63 587.46C467.51 589.07 472.86 589.89 479.77 589.89C486.67 589.89 492 589.07 495.82 587.46C499.59 585.84 502.39 583.52 504.23 580.56C506.05 577.57 507.12 574.02 507.48 569.9C507.8 565.77 507.96 561.29 507.96 556.42L507.96 488.43C507.96 486.8 508.66 485.36 509.89 484.18C511.16 482.95 512.78 482.33 514.68 482.33L539.45 482.33C541.34 482.33 542.92 482.95 544.18 484.18ZM485.28 352C485.28 341.08 486.65 331.36 489.46 322.85C492.22 314.33 496.76 307.18 502.9 301.41C509.07 295.61 517.01 291.22 526.7 288.24C536.38 285.25 548.17 283.76 562.08 283.76C575.85 283.76 587.61 285.25 597.39 288.24C607.1 291.22 615.07 295.61 621.25 301.41C627.43 307.18 631.94 314.33 634.71 322.85C637.5 331.36 638.89 341.08 638.89 352C638.89 363.04 637.5 372.82 634.71 381.33C631.94 389.86 627.43 397 621.25 402.79C615.07 408.56 607.1 412.96 597.39 415.94C587.61 418.93 575.85 420.44 562.08 420.44C548.17 420.44 536.38 418.93 526.7 415.94C517.01 412.96 509.07 408.56 502.9 402.79C496.76 397 492.22 389.86 489.46 381.33C486.65 372.82 485.28 363.04 485.28 352ZM597.94 352.97C597.94 347.38 597.39 342.27 596.3 337.67C595.19 333.05 593.28 329.14 590.56 325.88C587.83 322.62 584.13 320.09 579.52 318.27C574.89 316.44 569.1 315.54 562.08 315.54C555.07 315.54 549.23 316.44 544.62 318.27C539.99 320.09 536.37 322.62 533.64 325.88C530.89 329.14 528.98 333.05 527.96 337.67C526.92 342.27 526.41 347.38 526.41 352.97C526.41 358.57 526.92 363.67 527.96 368.28C528.98 372.89 530.89 376.85 533.64 380.16C536.37 383.48 539.99 386.09 544.62 387.95C549.23 389.86 555.07 390.8 562.08 390.8C569.1 390.8 574.89 389.86 579.52 387.95C584.13 386.09 587.83 383.48 590.56 380.16C593.28 376.85 595.19 372.89 596.3 368.28C597.39 363.67 597.94 358.57 597.94 352.97ZM599 566.55C599.5 570.62 600.58 574.34 602.13 577.69C603.7 581.1 605.93 583.99 608.83 586.43C611.74 588.87 615.47 590.75 619.98 592.03C624.53 593.34 630.17 593.94 636.93 593.94C642.76 593.94 647.62 593.67 651.56 593.14C655.46 592.59 658.92 591.82 661.9 590.79C664.85 589.8 667.56 588.57 670.02 587.14C672.44 585.74 675.08 584.08 677.94 582.17C679.54 580.95 681.14 580.43 682.69 580.55C684.26 580.69 685.58 581.51 686.66 582.99L697 596.43C698.8 598.6 698.8 598.66 699.46 599.53C703.22 604.29 695.96 609.03 695.7 609.16C690.93 612.41 688.24 613.86 684.13 615.98C680.01 618.07 675.62 619.76 671.06 621.04C666.41 622.31 661.42 623.24 655.98 623.79C650.61 624.31 644.27 624.59 636.93 624.59C620.71 624.59 607.48 622.68 597.29 618.91C587.06 615.12 579.1 609.99 573.41 603.49C567.72 597.01 563.87 589.46 561.77 580.87C559.64 572.29 558.6 563.12 558.6 553.39C558.6 543.89 559.64 534.85 561.77 526.26C563.87 517.69 567.79 510.14 573.54 503.63C579.29 497.16 587.21 492 597.38 488.13C607.53 484.26 620.64 482.33 636.73 482.33C647.7 482.33 657.03 483.36 664.74 485.36C672.44 487.42 678.8 490.29 683.82 494.02C688.8 497.75 692.7 502.15 695.45 507.32C698.26 512.44 700.27 518.17 701.58 524.47C702.87 530.75 703.58 537.46 703.68 544.53C703.85 551.62 703.85 558.99 703.68 566.55L623.61 566.55C620.09 566.55 620.09 563.54 620.09 563.54L620.09 542.94C620.09 542.94 620.24 539.56 623.61 539.56L665.74 539.56C665.47 535.64 664.91 532.03 664.14 528.7C663.31 525.39 661.87 522.57 659.76 520.19C657.67 517.85 654.7 515.96 650.86 514.59C646.99 513.26 641.79 512.56 635.31 512.56C628.82 512.56 623.42 513.21 619.11 514.5C614.75 515.78 611.17 517.59 608.34 519.87C605.5 522.19 603.37 525 601.93 528.3C600.53 531.62 599.5 535.37 599 539.56C599 539.56 597.34 554.49 599 566.55Z" />
	</g>
</svg>